<svg width="17" height="15" viewBox="0 0 17 15" fill="none" xmlns="http://www.w3.org/2000/svg">
<path d="M0 0.833333C0 0.61232 0.0877973 0.400358 0.244078 0.244078C0.400358 0.0877973 0.61232 0 0.833333 0H15.8333C16.0543 0 16.2663 0.0877973 16.4226 0.244078C16.5789 0.400358 16.6667 0.61232 16.6667 0.833333C16.6667 1.05435 16.5789 1.26631 16.4226 1.42259C16.2663 1.57887 16.0543 1.66667 15.8333 1.66667H0.833333C0.61232 1.66667 0.400358 1.57887 0.244078 1.42259C0.0877973 1.26631 0 1.05435 0 0.833333ZM0.833333 8.33333H15.8333C16.0543 8.33333 16.2663 8.24554 16.4226 8.08926C16.5789 7.93297 16.6667 7.72101 16.6667 7.5C16.6667 7.27899 16.5789 7.06702 16.4226 6.91074C16.2663 6.75446 16.0543 6.66667 15.8333 6.66667H0.833333C0.61232 6.66667 0.400358 6.75446 0.244078 6.91074C0.0877973 7.06702 0 7.27899 0 7.5C0 7.72101 0.0877973 7.93297 0.244078 8.08926C0.400358 8.24554 0.61232 8.33333 0.833333 8.33333ZM0.833333 15H15.8333C16.0543 15 16.2663 14.9122 16.4226 14.7559C16.5789 14.5996 16.6667 14.3877 16.6667 14.1667C16.6667 13.9457 16.5789 13.7337 16.4226 13.5774C16.2663 13.4211 16.0543 13.3333 15.8333 13.3333H0.833333C0.61232 13.3333 0.400358 13.4211 0.244078 13.5774C0.0877973 13.7337 0 13.9457 0 14.1667C0 14.3877 0.0877973 14.5996 0.244078 14.7559C0.400358 14.9122 0.61232 15 0.833333 15Z" fill="white"/>
</svg>
